<svg width="35" height="35" viewBox="0 0 110 110" fill="none"
	xmlns="http://www.w3.org/2000/svg">
	<g>
		<rect x="2" y="2" width="106" height="106" rx="53" stroke="#000" stroke-width="4"/>
		<path d="M40.7921 78.673C48.7144 87.109 62.1104 87.109 70.0274 78.673M13.2609 59.0692C11.7614 51.2571 16.8786 43.7123 24.6907 42.2076C30.9352 41.0121 36.9752 45.1017 38.1811 51.3514C39.1353 56.3481 35.8584 61.1821 30.8618 62.1416C26.8613 62.9124 22.9972 60.2908 22.2317 56.2904M97.5638 46.4702C99.0581 54.2823 93.9461 61.827 86.1288 63.3266C79.8843 64.522 73.8495 60.4324 72.6436 54.1827C71.6894 49.1861 74.9611 44.352 79.9629 43.3977C83.9581 42.627 87.8275 45.2485 88.593 49.249" stroke="#000" stroke-width="4" stroke-miterlimit="10" stroke-linecap="round" stroke-linejoin="round"/>
	</g>
</svg>
