<svg width="35" height="35" viewBox="0 0 110 110" fill="none"
	xmlns="http://www.w3.org/2000/svg">
	<g>
		<rect x="2" y="2" width="106" height="106" rx="53" stroke="#000" stroke-width="4"/>
		<path fill-rule="evenodd" clip-rule="evenodd" d="M16.5 48.4748C15.6716 48.4748 15 49.1464 15 49.9748C15 50.8033 15.6716 51.4748 16.5 51.4748H42.7194C43.5478 51.4748 44.2194 50.8033 44.2194 49.9748C44.2194 49.1464 43.5478 48.4748 42.7194 48.4748H16.5ZM66.8862 48.4748C66.0578 48.4748 65.3862 49.1464 65.3862 49.9748C65.3862 50.8033 66.0578 51.4748 66.8862 51.4748H93.1056C93.9341 51.4748 94.6056 50.8033 94.6056 49.9748C94.6056 49.1464 93.9341 48.4748 93.1056 48.4748H66.8862ZM41.7344 83.4748C40.9059 83.4748 40.2344 84.1464 40.2344 84.9748C40.2344 85.8033 40.9059 86.4748 41.7344 86.4748H67.9538C68.7822 86.4748 69.4538 85.8033 69.4538 84.9748C69.4538 84.1464 68.7822 83.4748 67.9538 83.4748H41.7344Z" fill="#000"/>
	</g>
</svg>
